*******************************************************************************
 Angels Crest.2011.DVDSCR.Xvid.AC3-SiNiSTER
*******************************************************************************
-------------------------------------------------------------------------------
 General Information
------------------------------------------------------------------------------- 
http://www.pix2links.com/image/hUGK.jpg
Format : AVI
Format/Info : Audio Video Interleave
File size : 1.15 GiB
Duration : 1h 33mn
Overall bit rate : 1 764 Kbps
Video
ID : 0
Format : MPEG-4 Visual
Format profile : Advanced Simple@L5
Format settings, BVOP : Yes
Format settings, QPel : Yes
Format settings, GMC : 3 warppoints
Format settings, Matrix : Default (H.263)
Muxing mode : Packed bitstream
Codec ID : XVID
Codec ID/Hint : XviD
Duration : 1h 33mn
Bit rate : 1 372 Kbps
Width : 720 pixels
Height : 304 pixels
Display aspect ratio : 2.35:1
Frame rate : 23.976 fps
Color space : YUV
Chroma subsampling : 4:2:0
Bit depth : 8 bits
Scan type : Progressive
Bits/(Pixel*Frame) : 0.261
Stream size : 916 MiB (78%)
Writing library : XviD 64
Audio
ID : 1
Format : AC-3
Format/Info : Audio Coding 3
Mode extension : CM (complete main)
Codec ID : 2000
Duration : 1h 33mn
Bit rate mode : Constant
Bit rate : 384 Kbps
Channel(s) : 2 channels
Channel positions : Front: L R
Sampling rate : 44.1 KHz
Bit depth : 16 bits
Stream size : 256 MiB (22%)
Alignment : Aligned on interleaves
Interleave, duration : 70 ms (1.67 video frames)
Interleave, preload duration : 208 ms
Video Source: [EXCLUSIVE] Angels Crest (2011) DVDSCR [450MB] Jcberry526.....thanks	
Audio Source: [EXCLUSIVE] Angels Crest (2011) DVDSCR [450MB] Jcberry526.....thanks
Greets:
DarkScene,HDScene,Noir,CrEwSaDe,blackjesus,ViSiON,HDLiTE,BTVRG,Twentyforty,UnKnOwN,
FLAWL3SS,Rx,Relizlab,MiSTERE,ILLUMiNATI,SAFCuk009,HiVE-CM8..... and everybody else we 
respect.. u know who u are
 
-------------------------------------------------------------------------------
 Post Information
-------------------------------------------------------------------------------
Encoded by...........: SiNiSTER
 
Have sumthing to offer..looking for suppliers... cammers,cams,screeners, audio
supplier.. and any pre retail DVD/BR any RC...if u can provide any email us at
sinister@hushmail.me
-------------------------------------------------------------------------------
 Release Notes
-------------------------------------------------------------------------------
source had issues.. wasnt ripped right but not my fault.. made script to resize,
denoise then dropped into vdub to smooth,degrain, adjust RGB, hue, saturation,
gamma and threw in a white balance filter then sharpened.. converted AAC to AC3
and muxed back to my encode....enjoy
-------------------------------------------------------------------------------
 ScreenShots
------------------------------------------------------------------------------- 
http://www.pix2links.com/image/QFnlw.png 
http://www.pix2links.com/image/5S91r.png 
http://www.pix2links.com/image/NaZWM.png 
http://www.pix2links.com/image/xpfOb.png 
http://www.pix2links.com/image/YnPbs.jpg
-------------------------------------------------------------------------------
[img]http://leetleech.org/images/33506450373550172140.gif[/img]
-------------------------------------------------------------------------------
Generated with Cool NFO Creator - http://fly.to/coolbeans
-------------------------------------------------------------------------------